<svg width="125" height="148" viewBox="0 0 125 148" fill="none" xmlns="http://www.w3.org/2000/svg">
<path d="M21.0983 123C5.93165 105.333 -15.3017 61.3 21.0983 26.5L31.5983 38.5C22.5983 50.1667 9.99833 81.4 31.5983 113L21.0983 123Z" fill="white" stroke="white"/>
<path d="M27.0983 21.0983C44.765 5.93165 88.7983 -15.3017 123.598 21.0983L111.598 31.5983C99.9317 22.5983 68.6983 9.99832 37.0983 31.5983L27.0983 21.0983Z" fill="white" stroke="white"/>
<path d="M121.598 126.5C103.932 141.667 59.8983 162.9 25.0983 126.5L37.0983 116C48.765 125 79.9983 137.6 111.598 116L121.598 126.5Z" fill="white" stroke="white"/>
<path d="M22.3225 103.597C22.5239 103.878 22.6538 104.171 22.7122 104.476C22.7686 104.782 22.7441 105.075 22.6387 105.354C22.5314 105.635 22.3334 105.879 22.0448 106.086C21.7909 106.268 21.5492 106.366 21.3197 106.379C21.0882 106.393 20.8673 106.349 20.6568 106.247C20.4464 106.144 20.2466 106.008 20.0575 105.838C19.8651 105.667 19.6816 105.488 19.507 105.302C19.2792 105.057 19.0967 104.857 18.9593 104.702C18.8187 104.547 18.6986 104.447 18.5992 104.401C18.4984 104.354 18.3931 104.37 18.2835 104.449L18.2604 104.465C17.9757 104.669 17.8103 104.906 17.7643 105.175C17.7169 105.442 17.8057 105.732 18.0306 106.046C18.2637 106.371 18.5177 106.575 18.7925 106.657C19.0674 106.74 19.3125 106.761 19.5279 106.72L19.7606 107.532C19.4085 107.61 19.0884 107.606 18.8004 107.521C18.509 107.436 18.2515 107.3 18.0276 107.114C17.8005 106.928 17.6069 106.723 17.4469 106.499C17.3448 106.357 17.2448 106.181 17.147 105.972C17.0459 105.762 16.9852 105.533 16.9649 105.285C16.9432 105.035 16.9959 104.778 17.1228 104.512C17.2497 104.246 17.4892 103.987 17.8412 103.734L20.7616 101.64L21.2501 102.321L20.6498 102.752L20.6746 102.786C20.804 102.763 20.9621 102.767 21.149 102.796C21.3359 102.825 21.532 102.901 21.7373 103.025C21.9425 103.149 22.1376 103.339 22.3225 103.597ZM21.6362 103.932C21.443 103.663 21.2273 103.474 20.9891 103.365C20.7494 103.254 20.5121 103.212 20.2771 103.237C20.0408 103.261 19.8303 103.339 19.6456 103.472L19.0222 103.919C19.0776 103.923 19.1548 103.964 19.2541 104.041C19.35 104.118 19.454 104.212 19.5663 104.324C19.6752 104.435 19.7801 104.545 19.881 104.653C19.9787 104.761 20.0585 104.848 20.1206 104.914C20.2706 105.075 20.4267 105.213 20.5891 105.33C20.7481 105.446 20.9124 105.514 21.0819 105.536C21.2482 105.556 21.4179 105.504 21.591 105.38C21.8277 105.211 21.9438 104.995 21.9395 104.733C21.9318 104.47 21.8307 104.203 21.6362 103.932Z" fill="#333333"/>
<path d="M17.4818 95.9157L12.5385 98.2214L12.1962 97.4876L12.9429 97.1393L12.9189 97.0878C12.6322 97.1118 12.3577 97.0413 12.0953 96.8764C11.8329 96.7114 11.6327 96.4809 11.4946 96.1848C11.4685 96.129 11.4371 96.0588 11.4002 95.9741C11.3633 95.8894 11.337 95.8246 11.3213 95.7797L12.0937 95.4195C12.0993 95.4482 12.1171 95.5117 12.1473 95.61C12.1743 95.7071 12.2113 95.8061 12.2583 95.9069C12.3704 96.1472 12.5209 96.3383 12.7098 96.48C12.8956 96.6207 13.1019 96.7047 13.3289 96.732C13.5527 96.7582 13.7762 96.7193 13.9993 96.6152L17.1275 95.1562L17.4818 95.9157Z" fill="#333333"/>
<path d="M8.38525 86.9663L9.06989 86.7773L9.82191 89.5022L9.13728 89.6911L8.38525 86.9663ZM7.65837 89.2446L7.43541 88.4367L12.4469 87.0536C12.6751 86.9906 12.8372 86.9103 12.933 86.8126C13.0259 86.7133 13.0773 86.6058 13.0871 86.4901C13.094 86.3728 13.0811 86.2548 13.0484 86.1361C13.0238 86.0471 12.9991 85.9753 12.9742 85.9208C12.947 85.8669 12.9253 85.8238 12.909 85.7914L13.5894 85.4268C13.625 85.4759 13.6667 85.5467 13.7143 85.6392C13.7642 85.731 13.8099 85.8522 13.8515 86.0029C13.9145 86.2311 13.9272 86.4683 13.8895 86.7144C13.8512 86.9583 13.7515 87.1798 13.5903 87.379C13.4285 87.576 13.1948 87.7166 12.889 87.801L7.65837 89.2446Z" fill="#333333"/>
<path d="M12.4689 79.2516L7.04822 79.8582L6.95502 79.0253L12.3757 78.4188L12.4689 79.2516ZM6.09738 79.5358C6.11554 79.6981 6.07592 79.8443 5.9785 79.9743C5.88082 80.102 5.75434 80.1745 5.59906 80.1918C5.44378 80.2092 5.3044 80.1665 5.18092 80.0635C5.05718 79.9583 4.98623 79.8245 4.96806 79.6621C4.9499 79.4998 4.98965 79.3548 5.08733 79.2271C5.18475 79.0971 5.3111 79.0234 5.46638 79.0061C5.62166 78.9887 5.76117 79.0326 5.88491 79.1379C6.00839 79.2408 6.07921 79.3734 6.09738 79.5358Z" fill="#333333"/>
<path d="M12.286 69.3444C12.2528 69.8546 12.1037 70.2862 11.8388 70.6391C11.5738 70.9919 11.2235 71.2538 10.7877 71.4247C10.3519 71.5956 9.86229 71.6634 9.31894 71.628C8.76613 71.5921 8.2849 71.4587 7.87525 71.228C7.46339 70.9948 7.15008 70.6874 6.93531 70.3057C6.71833 69.9214 6.62583 69.4836 6.65782 68.9922C6.68273 68.6095 6.77605 68.2692 6.93779 67.9713C7.09953 67.6735 7.31435 67.4348 7.58225 67.2553C7.85016 67.0758 8.15574 66.9735 8.49901 66.9484L8.44457 67.7847C8.19236 67.8324 7.96343 67.9598 7.75778 68.1671C7.54991 68.3718 7.43398 68.6584 7.40999 69.027C7.38877 69.353 7.45521 69.6444 7.60932 69.9011C7.76121 70.1554 7.98625 70.361 8.28445 70.518C8.58044 70.6725 8.93396 70.7631 9.34502 70.7899C9.76554 70.8173 10.136 70.775 10.4565 70.663C10.7771 70.5486 11.0315 70.3754 11.2198 70.1433C11.4083 69.9088 11.5133 69.6262 11.5348 69.2955C11.5489 69.0781 11.524 68.8784 11.4599 68.6963C11.3958 68.5142 11.2969 68.3571 11.1632 68.225C11.0294 68.093 10.865 67.9945 10.67 67.9296L10.7244 67.0933C11.0426 67.1614 11.3244 67.2972 11.5698 67.5006C11.8129 67.7015 12.0002 67.9592 12.1315 68.2738C12.2607 68.5859 12.3122 68.9427 12.286 69.3444Z" fill="#333333"/>
<path d="M6.54203 58.3811L13.6038 60.12L13.4035 60.9337L6.34165 59.1949L6.54203 58.3811Z" fill="#333333"/>
<path d="M16.6844 51.5087C16.4711 51.989 16.1811 52.3563 15.8144 52.6105C15.4465 52.8616 15.0292 52.9963 14.5627 53.0145C14.0949 53.0295 13.6057 52.9237 13.0951 52.697C12.5844 52.4703 12.1757 52.1774 11.8688 51.8184C11.5608 51.4563 11.3719 51.059 11.3023 50.6266C11.2315 50.191 11.296 49.7482 11.4958 49.2982C11.6111 49.0385 11.7682 48.8014 11.9672 48.5866C12.1661 48.3719 12.4091 48.2039 12.696 48.0826C12.9808 47.9604 13.3097 47.9083 13.6825 47.9262C14.0553 47.9441 14.4743 48.0563 14.9395 48.2628L15.2641 48.4069L13.5579 52.2497L12.8958 51.9557L14.2561 48.8919C13.9748 48.767 13.6989 48.7118 13.4282 48.7263C13.1585 48.7387 12.9142 48.8193 12.6953 48.9682C12.4773 49.1149 12.3068 49.3267 12.1839 49.6037C12.0484 49.9088 12.0069 50.2064 12.0595 50.4965C12.1108 50.7835 12.2301 51.0398 12.4174 51.2654C12.6047 51.4911 12.8358 51.6649 13.1106 51.7869L13.552 51.9829C13.9285 52.1501 14.2765 52.2269 14.5959 52.2133C14.9142 52.1966 15.1933 52.1017 15.4334 51.9285C15.6713 51.7544 15.859 51.5126 15.9963 51.2032C16.0857 51.002 16.1383 50.8077 16.1541 50.6205C16.1686 50.4301 16.145 50.2499 16.0832 50.08C16.0192 49.9091 15.915 49.7528 15.7708 49.611L16.307 48.9633C16.5235 49.1526 16.686 49.3815 16.7948 49.65C16.9014 49.9175 16.9476 50.21 16.9336 50.5275C16.9173 50.8441 16.8343 51.1712 16.6844 51.5087Z" fill="#333333"/>
<path d="M19.3632 38.4737L19.0976 39.2096C18.968 39.175 18.8283 39.1607 18.6783 39.1667C18.5277 39.1695 18.3752 39.2115 18.2206 39.293C18.0661 39.3744 17.9178 39.5142 17.7757 39.7124C17.5811 39.9837 17.4815 40.2545 17.4769 40.5251C17.4717 40.7923 17.5643 40.9942 17.7548 41.1308C17.9241 41.2522 18.102 41.2865 18.2884 41.2338C18.4748 41.181 18.6945 41.0472 18.9476 40.8325L19.581 40.2904C19.9614 39.9631 20.3204 39.7734 20.6579 39.7212C20.9935 39.6676 21.3161 39.7518 21.6259 39.974C21.8798 40.1561 22.0544 40.392 22.1496 40.6817C22.2462 40.9695 22.2591 41.2846 22.1883 41.6271C22.1175 41.9696 21.9586 42.313 21.7116 42.6574C21.3874 43.1095 21.0209 43.4133 20.6122 43.5689C20.2035 43.7244 19.7823 43.7064 19.3487 43.5149L19.6507 42.7526C19.9334 42.8621 20.1958 42.874 20.4378 42.7883C20.6813 42.7007 20.903 42.5175 21.1031 42.2385C21.3307 41.9211 21.4441 41.6208 21.4433 41.3376C21.4419 41.0511 21.346 40.8395 21.1555 40.7029C21.0016 40.5926 20.8341 40.554 20.653 40.5872C20.4699 40.6191 20.2723 40.728 20.0604 40.9139L19.3574 41.5285C18.9701 41.8654 18.6072 42.0567 18.2686 42.1023C17.9294 42.1446 17.6069 42.056 17.301 41.8367C17.0509 41.6573 16.88 41.4284 16.7884 41.15C16.6981 40.8697 16.6857 40.568 16.7513 40.245C16.8182 39.9202 16.9635 39.6019 17.187 39.2902C17.5015 38.8516 17.8447 38.5762 18.2164 38.4641C18.5895 38.35 18.9718 38.3532 19.3632 38.4737Z" fill="#333333"/>
<path d="M48.5057 19.3632C48.0436 19.6137 47.5898 19.7278 47.1441 19.7056C46.6994 19.6801 46.2867 19.5323 45.9059 19.2621C45.526 18.9887 45.2029 18.6064 44.9366 18.1153C44.6703 17.6241 44.525 17.1427 44.5009 16.671C44.4777 16.1962 44.5704 15.7662 44.779 15.3811C44.9885 14.9927 45.3098 14.6812 45.7426 14.4465C45.9924 14.3111 46.2616 14.219 46.5502 14.1702C46.8388 14.1214 47.1338 14.1365 47.4352 14.2154C47.7354 14.2923 48.0278 14.4516 48.3123 14.6932C48.5968 14.9348 48.8604 15.2793 49.103 15.7268L49.2723 16.0389L45.5762 18.0431L45.2308 17.4063L48.1777 15.8084C48.031 15.5378 47.846 15.3257 47.6227 15.1721C47.4015 15.0174 47.1587 14.9323 46.8944 14.9167C46.6322 14.9 46.3679 14.9638 46.1015 15.1083C45.8081 15.2674 45.5937 15.4779 45.4583 15.7398C45.3239 15.9986 45.2621 16.2744 45.2729 16.5675C45.2837 16.8606 45.3607 17.1393 45.5041 17.4036L45.7343 17.8281C45.9306 18.1903 46.1595 18.4634 46.4209 18.6475C46.6833 18.8284 46.9624 18.9235 47.2583 18.9327C47.553 18.9398 47.8492 18.8627 48.1468 18.7014C48.3403 18.5964 48.5005 18.4746 48.6272 18.3358C48.7549 18.1938 48.8461 18.0367 48.9008 17.8643C48.9543 17.6899 48.9671 17.5025 48.9393 17.3021L49.7594 17.116C49.8153 17.398 49.8045 17.6786 49.727 17.9576C49.6482 18.2346 49.5065 18.4946 49.3016 18.7376C49.0956 18.9786 48.8303 19.1871 48.5057 19.3632Z" fill="#333333"/>
<path d="M58.8109 9.33862L58.4415 15.1424L57.625 15.3866L54.1295 10.7388L55.0005 10.4783L57.6885 14.2112L57.743 14.1949L57.94 9.59912L58.8109 9.33862Z" fill="#333333"/>
<path d="M68.7679 13.3259C68.2442 13.3702 67.7826 13.2928 67.3833 13.0938C66.9861 12.8922 66.6672 12.5913 66.4267 12.1911C66.1883 11.7883 66.0456 11.3086 65.9985 10.7519C65.9514 10.1951 66.0113 9.69589 66.1783 9.25411C66.3474 8.80978 66.6047 8.45302 66.9502 8.18383C67.2979 7.91209 67.717 7.75547 68.2077 7.71397C68.4908 7.69003 68.7743 7.71356 69.0583 7.78458C69.3423 7.8556 69.6065 7.98769 69.8509 8.18084C70.0951 8.37164 70.2991 8.63474 70.4629 8.97014C70.6267 9.30554 70.7301 9.72683 70.773 10.234L70.8029 10.5879L66.6133 10.9422L66.5522 10.2204L69.8926 9.93784C69.8667 9.63117 69.7822 9.36271 69.6392 9.13247C69.4985 8.90203 69.3102 8.72669 69.0744 8.60646C68.8408 8.48604 68.5731 8.43859 68.2711 8.46413C67.9385 8.49226 67.6577 8.59917 67.4287 8.78485C67.2018 8.96797 67.0346 9.19594 66.927 9.46877C66.8194 9.74159 66.7783 10.0278 66.8036 10.3274L66.8443 10.8086C66.879 11.2191 66.9792 11.5611 67.1449 11.8345C67.3128 12.1054 67.5304 12.3044 67.7977 12.4315C68.0648 12.5562 68.3671 12.6043 68.7044 12.5758C68.9238 12.5572 69.1194 12.5098 69.2911 12.4335C69.465 12.3546 69.6115 12.2472 69.7307 12.1112C69.8497 11.9728 69.9366 11.8063 69.9914 11.6116L70.8173 11.7698C70.7555 12.0507 70.6332 12.3034 70.4502 12.5279C70.267 12.7501 70.0329 12.9315 69.7478 13.072C69.4625 13.2102 69.1359 13.2948 68.7679 13.3259Z" fill="#333333"/>
<path d="M78.3681 9.99046L77.9692 13.2474L77.1373 13.1455L77.8005 7.73139L78.6041 7.82983L78.5005 8.67578L78.571 8.68441C78.7316 8.42502 78.9513 8.22773 79.2302 8.09255C79.5094 7.95502 79.8535 7.9113 80.2623 7.96138C80.6289 8.00628 80.9405 8.12076 81.197 8.30483C81.4538 8.48654 81.64 8.73832 81.7556 9.06016C81.8715 9.37965 81.9013 9.76968 81.8448 10.2303L81.4235 13.6705L80.5916 13.5686L81.0061 10.1848C81.0582 9.75944 80.9883 9.41458 80.7965 9.15019C80.605 8.88345 80.3165 8.72648 79.9311 8.67928C79.6656 8.64675 79.4212 8.67526 79.198 8.76478C78.9771 8.8546 78.7932 9.00261 78.6463 9.20882C78.4994 9.41503 78.4067 9.67557 78.3681 9.99046Z" fill="#333333"/>
<path d="M91.561 10.6406L91.3448 11.3171L88.6523 10.4564L88.8685 9.77993L91.561 10.6406ZM90.0512 8.78599L90.8495 9.04115L89.2666 13.9932C89.1945 14.2187 89.1731 14.3983 89.2025 14.5319C89.2348 14.6641 89.2967 14.7659 89.3882 14.8374C89.4827 14.9073 89.5885 14.961 89.7058 14.9985C89.7937 15.0266 89.8673 15.0452 89.9266 15.0542C89.9866 15.0609 90.0346 15.0663 90.0705 15.0704L90.0037 15.8394C89.9431 15.8424 89.8611 15.8385 89.7576 15.8278C89.6534 15.8194 89.5269 15.7914 89.3781 15.7438C89.1526 15.6717 88.9471 15.5526 88.7616 15.3864C88.5784 15.221 88.4474 15.0163 88.3688 14.7725C88.2924 14.5293 88.3025 14.2567 88.3991 13.9545L90.0512 8.78599Z" fill="#333333"/>
<path d="M101.176 16.3452L100.413 16.1736C100.431 16.0408 100.427 15.9003 100.403 15.7522C100.381 15.6032 100.32 15.4571 100.22 15.314C100.12 15.1708 99.9629 15.0411 99.7485 14.9249C99.4551 14.7658 99.1738 14.7008 98.9049 14.73C98.6391 14.7582 98.4503 14.8754 98.3386 15.0814C98.2393 15.2645 98.2275 15.4453 98.3031 15.6237C98.3788 15.802 98.5389 16.0033 98.7836 16.2276L99.4005 16.7883C99.7728 17.1248 100.006 17.4573 100.1 17.7856C100.195 18.1119 100.152 18.4425 99.97 18.7776C99.821 19.0523 99.6088 19.255 99.3333 19.3857C99.0598 19.5175 98.7488 19.5696 98.4001 19.5422C98.0514 19.5147 97.6908 19.3999 97.3183 19.1979C96.8292 18.9327 96.482 18.6071 96.2766 18.221C96.0712 17.835 96.0365 17.4148 96.1723 16.9607L96.9664 17.165C96.8931 17.4592 96.914 17.721 97.0293 17.9505C97.1466 18.1811 97.3562 18.3782 97.6579 18.5418C98.0013 18.728 98.3134 18.803 98.5943 18.7668C98.8784 18.7297 99.0763 18.6081 99.188 18.402C99.2783 18.2355 99.2956 18.0645 99.24 17.8889C99.1855 17.7113 99.0528 17.5289 98.8419 17.3418L98.1443 16.7211C97.7616 16.379 97.5265 16.0428 97.4389 15.7125C97.3546 15.3813 97.4022 15.0503 97.5816 14.7194C97.7283 14.4488 97.934 14.2507 98.1988 14.1249C98.4657 14.0003 98.7634 13.9504 99.092 13.9751C99.4227 14.0009 99.7567 14.1052 100.094 14.288C100.568 14.5453 100.884 14.8514 101.042 15.2062C101.202 15.5622 101.246 15.9418 101.176 16.3452Z" fill="#333333"/>
<path d="M54.5998 133.795L53.2757 136.797L52.5089 136.459L54.71 131.468L55.4508 131.795L55.1069 132.575L55.1719 132.604C55.4006 132.402 55.6681 132.277 55.9742 132.228C56.2812 132.177 56.6232 132.235 57.0001 132.401C57.338 132.55 57.6031 132.75 57.7954 133C57.9887 133.248 58.0941 133.543 58.1116 133.885C58.1301 134.224 58.0458 134.606 57.8585 135.031L56.4599 138.202L55.6931 137.864L57.0688 134.744C57.2417 134.352 57.2746 134.002 57.1675 133.693C57.0613 133.383 56.8306 133.149 56.4754 132.992C56.2306 132.884 55.9884 132.841 55.7488 132.862C55.5114 132.884 55.2925 132.973 55.0923 133.127C54.892 133.282 54.7278 133.505 54.5998 133.795Z" fill="#333333"/>
<path d="M65.4925 140.717C64.9738 140.633 64.545 140.445 64.2061 140.155C63.8699 139.863 63.6339 139.493 63.498 139.047C63.3649 138.598 63.3432 138.098 63.4331 137.546C63.5229 136.995 63.7026 136.525 63.9721 136.137C64.2443 135.748 64.5807 135.464 64.9813 135.287C65.3847 135.108 65.8294 135.058 66.3154 135.138C66.5958 135.183 66.865 135.275 67.1232 135.413C67.3813 135.551 67.6054 135.744 67.7955 135.991C67.9859 136.235 68.1197 136.54 68.197 136.905C68.2742 137.27 68.2718 137.704 68.19 138.206L68.1329 138.557L63.9831 137.881L64.0996 137.166L67.4082 137.705C67.4577 137.401 67.4411 137.12 67.3584 136.862C67.2781 136.604 67.1382 136.388 66.9387 136.214C66.7415 136.041 66.4934 135.929 66.1943 135.881C65.8648 135.827 65.5664 135.862 65.2991 135.987C65.0345 136.109 64.8168 136.289 64.646 136.528C64.4753 136.766 64.3657 137.034 64.3173 137.331L64.2397 137.807C64.1734 138.214 64.1873 138.57 64.2815 138.876C64.3783 139.179 64.5409 139.425 64.7693 139.613C64.998 139.799 65.2795 139.92 65.6136 139.974C65.8309 140.01 66.0321 140.011 66.2173 139.979C66.4051 139.945 66.5734 139.876 66.7221 139.773C66.8712 139.668 66.996 139.528 67.0966 139.352L67.8591 139.707C67.7308 139.964 67.5506 140.179 67.3185 140.353C67.0868 140.524 66.8155 140.643 66.5048 140.709C66.1944 140.774 65.857 140.777 65.4925 140.717Z" fill="#333333"/>
<path d="M75.8951 141.136L73.5561 135.936L74.4297 135.824L76.1279 139.818L76.1842 139.81L76.811 135.52L77.6987 135.407L79.3668 139.39L79.4232 139.383L80.0658 135.105L80.9394 134.994L79.9813 140.615L79.1641 140.719L77.4501 136.713L77.3655 136.724L76.7124 141.032L75.8951 141.136Z" fill="#333333"/>
<path d="M90.6008 132.829L89.9979 133.328C89.904 133.232 89.7909 133.149 89.6586 133.078C89.5276 133.004 89.3748 132.962 89.2003 132.954C89.0258 132.946 88.827 132.991 88.6039 133.089C88.2985 133.224 88.075 133.406 87.9335 133.637C87.7932 133.864 87.7704 134.085 87.8649 134.3C87.949 134.49 88.0847 134.61 88.2721 134.66C88.4594 134.709 88.7166 134.706 89.0437 134.649L89.8648 134.504C90.3588 134.416 90.7643 134.435 91.0815 134.562C91.3977 134.686 91.6328 134.923 91.7866 135.271C91.9127 135.557 91.9431 135.849 91.8778 136.147C91.8147 136.444 91.6656 136.722 91.4305 136.981C91.1954 137.24 90.884 137.455 90.4963 137.626C89.9872 137.85 89.5172 137.926 89.0862 137.852C88.6552 137.778 88.3016 137.548 88.0256 137.163L88.6731 136.66C88.8609 136.898 89.0808 137.042 89.3328 137.091C89.587 137.139 89.8711 137.094 90.1852 136.956C90.5426 136.798 90.7929 136.597 90.9362 136.353C91.0806 136.105 91.1056 135.875 91.011 135.66C90.9345 135.487 90.8099 135.368 90.637 135.305C90.4632 135.239 90.2377 135.233 89.9606 135.285L89.0429 135.457C88.5381 135.55 88.1283 135.53 87.8135 135.398C87.5 135.262 87.2672 135.021 87.1153 134.677C86.9911 134.395 86.9603 134.111 87.0229 133.825C87.0877 133.538 87.2304 133.272 87.451 133.027C87.6738 132.781 87.9607 132.581 88.3116 132.426C88.8055 132.208 89.241 132.146 89.6181 132.238C89.9974 132.329 90.3249 132.527 90.6008 132.829Z" fill="#333333"/>
<path d="M62.25 92.875C63.5 94.4375 64.125 96.3125 64.125 98.5C64.125 103.813 60.0625 107.875 54.75 107.875C49.4375 107.875 45.375 103.813 45.375 98.5C45.375 93.1875 49.4375 89.125 54.75 89.125C56 89.125 57.25 89.4375 58.5 90.0625L62.875 84.4375C60.0625 81.3125 58.8125 76.9375 59.4375 72.875L53.1875 70.6875C51.625 73.1875 48.8125 75.0625 45.375 75.0625C40.0625 75.0625 36 71 36 65.6875C36 60.375 40.0625 56.3125 45.375 56.3125C50.6875 56.3125 54.75 60.375 54.75 65.6875V66.3125L61 68.5C62.875 64.75 66.625 61.9375 71 61.3125V54.4375C67.25 53.5 64.125 49.75 64.125 45.375C64.125 40.0625 68.1875 36 73.5 36C78.8125 36 82.875 40.0625 82.875 45.375C82.875 49.75 79.75 53.5 76 54.4375V61.3125C80.375 61.9375 84.125 64.75 86 68.5L92.25 66.3125V65.6875C92.25 60.375 96.3125 56.3125 101.625 56.3125C106.938 56.3125 111 60.375 111 65.6875C111 71 106.938 75.0625 101.625 75.0625C98.1875 75.0625 95.375 73.1875 93.8125 70.6875L87.5625 72.875C88.1875 76.9375 86.9375 81.3125 84.125 84.4375L88.5 90.0625C89.75 89.4375 91 89.125 92.25 89.125C97.5625 89.125 101.625 93.1875 101.625 98.5C101.625 103.813 97.5625 107.875 92.25 107.875C86.9375 107.875 82.875 103.813 82.875 98.5C82.875 96.3125 83.5 94.4375 84.75 92.875L80.375 87.25C76 89.75 71 89.75 66.625 87.25L62.25 92.875Z" fill="#D3D3D3"/>
</svg>
